<mxfile host="Electron" modified="2024-02-04T01:54:24.309Z" agent="Mozilla/5.0 (Windows NT 10.0; Win64; x64) AppleWebKit/537.36 (KHTML, like Gecko) draw.io/23.0.2 Chrome/120.0.6099.109 Electron/28.1.0 Safari/537.36" etag="oYv5rsGc2EZHeuVqBMbB" version="23.0.2" type="device">
  <diagram name="Page-1" id="vtJYZJCfMdaVB1ODLIIk">
    <mxGraphModel dx="326" dy="570" grid="1" gridSize="10" guides="1" tooltips="1" connect="1" arrows="1" fold="1" page="1" pageScale="1" pageWidth="850" pageHeight="1100" math="0" shadow="0">
      <root>
        <mxCell id="0" />
        <mxCell id="1" parent="0" />
        <mxCell id="yVVV8T-FnGAXuj6wmVob-7" style="edgeStyle=orthogonalEdgeStyle;rounded=0;orthogonalLoop=1;jettySize=auto;html=1;entryX=0.5;entryY=0;entryDx=0;entryDy=0;" edge="1" parent="1" source="yVVV8T-FnGAXuj6wmVob-1" target="yVVV8T-FnGAXuj6wmVob-6">
          <mxGeometry relative="1" as="geometry" />
        </mxCell>
        <mxCell id="yVVV8T-FnGAXuj6wmVob-1" value="GameManager" style="rounded=0;whiteSpace=wrap;html=1;" vertex="1" parent="1">
          <mxGeometry x="190" y="140" width="120" height="60" as="geometry" />
        </mxCell>
        <mxCell id="yVVV8T-FnGAXuj6wmVob-9" style="edgeStyle=orthogonalEdgeStyle;rounded=0;orthogonalLoop=1;jettySize=auto;html=1;entryX=0;entryY=0.5;entryDx=0;entryDy=0;" edge="1" parent="1" source="yVVV8T-FnGAXuj6wmVob-6" target="yVVV8T-FnGAXuj6wmVob-8">
          <mxGeometry relative="1" as="geometry">
            <Array as="points">
              <mxPoint x="250" y="330" />
            </Array>
          </mxGeometry>
        </mxCell>
        <mxCell id="yVVV8T-FnGAXuj6wmVob-6" value="World" style="rounded=0;whiteSpace=wrap;html=1;" vertex="1" parent="1">
          <mxGeometry x="190" y="220" width="120" height="60" as="geometry" />
        </mxCell>
        <mxCell id="yVVV8T-FnGAXuj6wmVob-14" style="edgeStyle=orthogonalEdgeStyle;rounded=0;orthogonalLoop=1;jettySize=auto;html=1;entryX=0;entryY=0.5;entryDx=0;entryDy=0;" edge="1" parent="1" source="yVVV8T-FnGAXuj6wmVob-8" target="yVVV8T-FnGAXuj6wmVob-13">
          <mxGeometry relative="1" as="geometry" />
        </mxCell>
        <mxCell id="yVVV8T-FnGAXuj6wmVob-8" value="Tilemap" style="rounded=0;whiteSpace=wrap;html=1;" vertex="1" parent="1">
          <mxGeometry x="320" y="300" width="120" height="60" as="geometry" />
        </mxCell>
        <mxCell id="yVVV8T-FnGAXuj6wmVob-13" value="Entities" style="rounded=0;whiteSpace=wrap;html=1;" vertex="1" parent="1">
          <mxGeometry x="480" y="300" width="120" height="60" as="geometry" />
        </mxCell>
      </root>
    </mxGraphModel>
  </diagram>
</mxfile>
